<?xml version="1.0" encoding="utf-8"?>
<!-- Generator: Adobe Illustrator 19.2.1, SVG Export Plug-In . SVG Version: 6.00 Build 0)  -->
<svg version="1.1" id="Layer_1" xmlns="http://www.w3.org/2000/svg" xmlns:xlink="http://www.w3.org/1999/xlink" x="0px" y="0px"
	 viewBox="0 0 1000 800" style="enable-background:new 0 0 1000 800;" xml:space="preserve">
<style type="text/css">
	.st0{fill:#FFFFFF;stroke:#000000;stroke-miterlimit:10;}
</style>
<path class="st0" d="M540.6,329c-55.6-23-55.6-31.1-55.6-36.5c0-13.1,17.6-15.1,28.1-15.1c32.5,0,52.3,11.3,61.9,16.8l41.7,23.8
	l45.6-120.4l-29.9-17.5c-19.8-11.6-41.1-19.6-64.5-24.1V88.4H445.4v75.4c-60.2,22.2-98.5,73.8-98.5,136.6
	c0,98.7,93.7,135.4,133.3,151c48.1,19.5,48.1,32.6,48.1,39.6c0,16.9-19.7,22.9-36.6,22.9c-24.7,0-51.3-7.9-71.2-21.2l-43.7-29.1
	l-43.8,122.4l25.2,18c21.3,15.2,51,26.7,82.7,32.4v69.9h123.2v-77.3c62.9-22.8,103.1-76.8,103.1-142.5
	C667.2,391.6,594.8,351.1,540.6,329z"/>
</svg>
