<?xml version="1.0" encoding="utf-8"?>
<!-- Generator: Adobe Illustrator 16.0.0, SVG Export Plug-In . SVG Version: 6.00 Build 0)  -->
<!DOCTYPE svg PUBLIC "-//W3C//DTD SVG 1.1//EN" "http://www.w3.org/Graphics/SVG/1.1/DTD/svg11.dtd">
<svg version="1.1" id="Layer_1" xmlns="http://www.w3.org/2000/svg" xmlns:xlink="http://www.w3.org/1999/xlink" x="0px" y="0px"
	 width="327px" height="146px" viewBox="0 0 327 146" enable-background="new 0 0 327 146" xml:space="preserve">
<g>
	<path d="M44.196,7.652c8.437,0,13.039,4.602,13.039,13.039v42.95c0,8.437-4.602,13.039-13.039,13.039H6.806V7.652H44.196z
		 M39.402,62.299c1.15,0,1.726-0.575,1.726-1.726V23.759c0-1.15-0.575-1.726-1.726-1.726h-16.49v40.266H39.402z"/>
	<path d="M87.622,61.34L83.403,76.68H67.489L89.348,7.652h18.599l22.05,69.027h-16.585l-4.314-15.339H87.622z M98.359,22.896
		l-6.807,24.447h13.614L98.359,22.896z"/>
	<path d="M178.694,76.68l-10.45-24.543h-9.396V76.68h-16.106V7.652h36.814c8.437,0,13.039,4.602,13.039,13.039v18.407
		c0,6.615-2.78,10.833-8.054,12.368l10.737,25.214H178.694z M174.764,38.523c1.15,0,1.726-0.575,1.726-1.726v-13.23
		c0-1.151-0.575-1.726-1.726-1.726h-15.915v16.682H174.764z"/>
	<path d="M236.787,22.033V76.68h-16.106V22.033H203.52V7.652h50.429v14.381H236.787z"/>
	<path d="M267.461,7.652h16.106v26.557h21.188V7.652h16.106V76.68h-16.106v-28.09h-21.188v28.09h-16.106V7.652z"/>
</g>
<line stroke="#000000" stroke-width="2" stroke-miterlimit="10" x1="8" y1="100" x2="139" y2="100"/>
<g>
	<path d="M19.383,132.301h2.596v5.259c-1.452,1.599-3.527,2.397-6.226,2.397c-2.273,0-4.176-0.748-5.709-2.244
		s-2.299-3.388-2.299-5.676s0.781-4.194,2.343-5.72s3.45-2.288,5.665-2.288c2.214,0,4.055,0.646,5.522,1.936l-1.386,1.98
		c-0.602-0.514-1.207-0.869-1.815-1.067c-0.609-0.197-1.317-0.297-2.123-0.297c-1.555,0-2.86,0.503-3.916,1.507
		c-1.056,1.005-1.584,2.325-1.584,3.96c0,1.636,0.513,2.948,1.54,3.938c1.026,0.99,2.27,1.485,3.729,1.485
		c1.459,0,2.68-0.315,3.663-0.946V132.301z"/>
	<path d="M31.812,136.283l-1.54,3.498H27.5l6.776-15.378h2.772l6.776,15.378h-2.772l-1.54-3.498H31.812z M38.457,133.885
		l-2.794-6.336l-2.794,6.336H38.457z"/>
	<path d="M50.358,139.781v-15.378h2.596v12.914h7.018v2.464H50.358z"/>
	<path d="M69.388,136.283l-1.54,3.498h-2.772l6.776-15.378h2.772l6.776,15.378h-2.772l-1.54-3.498H69.388z M76.032,133.885
		l-2.794-6.336l-2.794,6.336H76.032z"/>
	<path d="M94.952,137.428c0.895,0,1.665-0.15,2.31-0.451s1.32-0.781,2.024-1.441l1.672,1.716c-1.628,1.805-3.605,2.706-5.929,2.706
		c-2.325,0-4.253-0.748-5.786-2.244s-2.299-3.388-2.299-5.676s0.781-4.194,2.343-5.72s3.535-2.288,5.918-2.288
		s4.375,0.88,5.973,2.64l-1.65,1.805c-0.733-0.704-1.427-1.195-2.079-1.475c-0.653-0.278-1.419-0.418-2.299-0.418
		c-1.555,0-2.86,0.503-3.916,1.507c-1.056,1.005-1.584,2.288-1.584,3.851c0,1.562,0.524,2.867,1.573,3.916
		S93.514,137.428,94.952,137.428z"/>
	<path d="M114.333,126.779v13.002h-2.596v-13.002h-4.664v-2.376h11.924v2.376H114.333z"/>
	<path d="M126.213,124.403h2.596v15.378h-2.596V124.403z"/>
	<path d="M144.495,137.428c0.895,0,1.665-0.15,2.31-0.451s1.32-0.781,2.024-1.441l1.672,1.716c-1.628,1.805-3.605,2.706-5.929,2.706
		c-2.325,0-4.253-0.748-5.786-2.244s-2.299-3.388-2.299-5.676s0.781-4.194,2.343-5.72s3.535-2.288,5.918-2.288
		s4.375,0.88,5.973,2.64l-1.65,1.805c-0.733-0.704-1.427-1.195-2.079-1.475c-0.653-0.278-1.419-0.418-2.299-0.418
		c-1.555,0-2.86,0.503-3.916,1.507c-1.056,1.005-1.584,2.288-1.584,3.851c0,1.562,0.524,2.867,1.573,3.916
		S143.057,137.428,144.495,137.428z"/>
	<path d="M181.367,137.658c-1.555,1.518-3.477,2.277-5.764,2.277c-2.289,0-4.21-0.76-5.765-2.277
		c-1.555-1.518-2.332-3.41-2.332-5.676c0-2.267,0.777-4.158,2.332-5.676c1.554-1.519,3.476-2.277,5.765-2.277
		c2.287,0,4.209,0.759,5.764,2.277c1.555,1.518,2.332,3.409,2.332,5.676C183.699,134.248,182.922,136.141,181.367,137.658z
		 M179.463,128.033c-1.049-1.085-2.334-1.628-3.859-1.628s-2.812,0.543-3.862,1.628c-1.049,1.086-1.573,2.401-1.573,3.949
		s0.524,2.863,1.573,3.949c1.049,1.085,2.336,1.628,3.862,1.628s2.811-0.543,3.859-1.628c1.049-1.086,1.574-2.401,1.574-3.949
		S180.512,129.119,179.463,128.033z"/>
	<path d="M198.131,139.781h-2.904l-6.182-15.378h2.903l4.73,11.484l4.729-11.484h2.904L198.131,139.781z"/>
	<path d="M221.715,124.403v2.442h-8.205v4.069h7.369v2.311h-7.369v4.113h8.47v2.442h-11.066v-15.378H221.715z"/>
	<path d="M241.977,129.397c0,2.537-1.107,4.136-3.322,4.796l4.026,5.588h-3.3l-3.675-5.17h-3.409v5.17H229.7v-15.378h5.72
		c2.347,0,4.026,0.396,5.038,1.188C241.471,126.383,241.977,127.652,241.977,129.397z M238.522,131.575
		c0.528-0.454,0.792-1.185,0.792-2.188c0-1.005-0.271-1.694-0.814-2.068c-0.542-0.374-1.511-0.562-2.903-0.562h-3.3v5.5h3.233
		C236.997,132.257,237.994,132.03,238.522,131.575z"/>
	<path d="M250.116,139.781v-15.378h2.597v12.914h7.018v2.464H250.116z"/>
	<path d="M279.398,137.658c-1.555,1.518-3.476,2.277-5.764,2.277s-4.21-0.76-5.765-2.277s-2.332-3.41-2.332-5.676
		c0-2.267,0.777-4.158,2.332-5.676c1.555-1.519,3.477-2.277,5.765-2.277s4.209,0.759,5.764,2.277
		c1.555,1.518,2.332,3.409,2.332,5.676C281.73,134.248,280.953,136.141,279.398,137.658z M277.495,128.033
		c-1.049-1.085-2.335-1.628-3.86-1.628s-2.812,0.543-3.861,1.628c-1.049,1.086-1.573,2.401-1.573,3.949s0.524,2.863,1.573,3.949
		c1.049,1.085,2.336,1.628,3.861,1.628s2.812-0.543,3.86-1.628c1.049-1.086,1.573-2.401,1.573-3.949
		S278.544,129.119,277.495,128.033z"/>
	<path d="M301.685,129.397c0,2.537-1.107,4.136-3.322,4.796l4.026,5.588h-3.3l-3.675-5.17h-3.409v5.17h-2.597v-15.378h5.72
		c2.347,0,4.026,0.396,5.038,1.188C301.179,126.383,301.685,127.652,301.685,129.397z M298.23,131.575
		c0.528-0.454,0.792-1.185,0.792-2.188c0-1.005-0.271-1.694-0.814-2.068c-0.542-0.374-1.511-0.562-2.903-0.562h-3.3v5.5h3.233
		C296.705,132.257,297.702,132.03,298.23,131.575z"/>
	<path d="M321.463,126.416c1.48,1.342,2.222,3.209,2.222,5.6s-0.719,4.282-2.156,5.676s-3.638,2.09-6.6,2.09h-5.104v-15.378h5.28
		C317.861,124.403,319.98,125.074,321.463,126.416z M321.066,132.081c0-3.52-2.017-5.28-6.05-5.28h-2.596v10.538h2.882
		c1.862,0,3.289-0.443,4.278-1.331C320.571,135.121,321.066,133.812,321.066,132.081z"/>
</g>
<g>
	<path d="M160.862,100.238c-1.34,2.422-3.361,4.201-6.441,4.021c0,0,0.06,0.561-0.04,1.16c-0.22,1.28-0.7,2.66-1.32,3.781
		c-0.68,1.2-1.52,2.08-2.82,2.08c-1.38,0-2.301-0.98-1.26-3.541l5.921-14.662c1.221-3.102,2.481-4.021,3.921-4.021
		c1.601,0,2.281,1.36,1.581,3.58c-0.48,1.521-1.581,4.121-2.561,5.902c-1.041,1.88-1.78,2.78-4.221,2.86l-0.46,1.12
		c0.38,0.34,0.94,0.641,1.74,0.641c2.141,0,3.721-1.121,5.102-3.541C160.302,99.619,160.762,99.939,160.862,100.238z M152.68,103.72
		l-2.101,5.161c-0.32,0.86-0.12,0.98,0.02,1c1.12,0.16,2.281-3.24,2.561-4.561C153.38,104.26,153.12,103.859,152.68,103.72z
		 M156.821,93.518l-2.74,6.741c1-0.14,1.58-0.72,2.3-2.04c1.48-2.761,2.4-5.301,2.641-6.121c0.16-0.561,0.3-1.341-0.18-1.341
		C158.062,90.757,157.381,92.137,156.821,93.518z"/>
	<path d="M170.682,100.238c-1.2,2.102-2.96,3.381-4.981,2.861c-0.92,1.26-2.141,2.16-3.621,2.16c-1.48,0-2.621-0.9-2.621-2.84
		c0-2.581,2.041-8.062,5.702-8.062c1.48,0,2.6,0.9,2.6,2.82c0,1.24-0.48,3.141-1.34,4.762c1.06,0.22,2.3-0.46,3.4-2.32
		C170.122,99.619,170.582,99.939,170.682,100.238z M164.061,102.279c-0.22-0.22-0.36-0.52-0.36-0.88c0-0.74,0.64-1.341,1.4-1.22
		c0.48-1.221,0.8-2.461,0.8-3.221c0-0.841-0.36-1.182-0.82-1.182c-1.761,0-3.761,4.982-3.761,6.842c0,0.761,0.34,1.221,0.88,1.221
		C162.82,103.84,163.48,103.199,164.061,102.279z"/>
	<path d="M169.82,99.619c0.56-0.961,1.2-2.281,1.78-3.561c-0.36-0.381-0.62-0.801-0.62-1.281c0-0.939,0.96-1.859,1.78-2.12
		l1.08,0.761l-0.76,1.779c0.8,0.781,2.381,1.641,2.381,2.922c0,0.239-0.061,0.58-0.24,1.02l-0.9,2.221
		c-0.92,2.28-0.42,2.561-0.1,2.561c0.76,0,1.86-1.521,3.5-4.301c0.301,0,0.761,0.32,0.861,0.619
		c-1.541,2.661-3.041,5.021-4.941,5.021c-1.581,0-2.521-1.26-1.101-4.701l0.74-1.8c0.16-0.4,0.18-0.601,0.18-0.681
		c0-0.4-0.4-0.74-1.041-1.279c-0.5,1.08-1.08,2.279-1.74,3.439C170.38,100.238,169.919,99.919,169.82,99.619z"/>
</g>
<line stroke="#000000" stroke-width="2" stroke-miterlimit="10" x1="189" y1="100" x2="320" y2="100"/>
</svg>
