<?xml version="1.0" encoding="utf-8"?>
<!-- Generator: Adobe Illustrator 19.2.1, SVG Export Plug-In . SVG Version: 6.00 Build 0)  -->
<svg version="1.1" id="Layer_1" xmlns="http://www.w3.org/2000/svg" xmlns:xlink="http://www.w3.org/1999/xlink" x="0px" y="0px"
	 viewBox="0 0 1000 800" style="enable-background:new 0 0 1000 800;" xml:space="preserve">
<style type="text/css">
	.st0{fill:#FFFFFF;stroke:#000000;stroke-miterlimit:10;}
</style>
<path class="st0" d="M436.2,42c-108.8,0-156,90.4-156,181.6c0,120,72,174.4,72,214.4c0,16-10.4,35.2-40.8,51.2l-159.2,85.6
	c-56,30.4-28,147.2-28,147.2h623.2c0,0,27.2-117.6-28-147.2L560.2,490c-29.6-16-42.4-32.8-42.4-48c0-36.8,73.6-88.8,73.6-218.4
	C591.4,115.6,533.8,42,436.2,42z M803.4,98.8h-28c-28,0-28,0-28,28v56.8h-56.8c-28,0-28,0-28,28v28c0,28,0,28,28,28h56.8v56.8
	c0,28,0,28,28,28h28c28,0,28,0,28-28v-56.8h56.8c28,0,28,0,28-28v-28c0-28,0-28-28-28h-56.8v-56.8C832.2,98.8,832.2,98.8,803.4,98.8
	z"/>
</svg>
